# xmcd CD database file
#
# Track frame offsets:
#	150
#	16254
#	31422
#	44832
#	59506
#	76938
#	91945
#	108543
#	124514
#	140743
#	156410
#	170917
#	188224
#
# Disc length: 2721 seconds
#
# Revision: 0
# Processed by: cddbd v1.5.2PL0 Copyright (c) Steve Scherf et al.
# Submitted via: CDex 1.51
#
DISCID=b70a9f0d
DTITLE=Yellow Stone Company - Families halten zusammen
DYEAR=2004
DGENRE=Country
TTITLE0=Der siebte Tag des Herrn
TTITLE1=Families halten zusammen
TTITLE2=Geht nicht gibt's nicht
TTITLE3=Stammbuch
TTITLE4=Zwanzig Jahre nur mit dir
TTITLE5=Mein Navi-System
TTITLE6=Alles ist Schnee
TTITLE7=Kann sein vielleicht
TTITLE8=Der innere Schweinehund
TTITLE9=Wild Card
TTITLE10=Wenn der Ball rollt
TTITLE11=Gott schütze die Wege
TTITLE12=Gemeinsam geht's
EXTD=YEAR: 2004
EXTT0=
EXTT1=
EXTT2=
EXTT3=
EXTT4=
EXTT5=
EXTT6=
EXTT7=
EXTT8=
EXTT9=
EXTT10=
EXTT11=
EXTT12=
PLAYORDER=
